<svg width="198" height="308" viewBox="0 0 198 308" fill="none" xmlns="http://www.w3.org/2000/svg">
    <g opacity="0.43">
        <path d="M110.205 213.828C103.2 205.355 98.8987 193.229 103.558 182.901C105.378 178.865 108.329 175.185 111.42 172.142C121.565 162.149 133.672 155.728 146.283 150.417C153.252 147.481 160.313 144.807 168.049 141.729C146.882 164.525 123.977 184.641 110.205 213.828Z" fill="#10494B"/>
        <path d="M86.6844 213.362C86.1324 211.822 85.6444 210.253 85.0199 208.751C80.6104 198.14 73.7754 189.389 66.5185 181.154C56.052 169.271 45.0994 157.908 34.3452 146.331C33.06 144.948 31.7322 143.611 30.4258 142.253C30.5387 141.991 30.6517 141.731 30.7647 141.469C31.9667 141.983 33.1495 142.568 34.3771 143.001C46.7853 147.377 59.0272 152.279 70.3974 159.304C78.3214 164.2 86.0152 169.548 91.6055 177.857C96.1195 184.567 97.2128 191.742 94.5296 199.333C92.767 204.322 90.1562 208.951 87.9248 213.742C87.5135 213.617 87.0979 213.488 86.6844 213.362Z" fill="#10494B"/>
        <path d="M153.983 93.8644C153.723 80.3596 156.324 67.8833 163.293 56.8834C169.593 46.9375 178.408 41.6002 189.388 40.5209C190.824 40.3794 192.254 40.1132 193.693 40.0457C196.152 39.9295 196.515 40.5758 195.268 42.9287C190.696 51.5525 184.955 59.1603 178.442 66.0901C171.826 73.1298 165.151 80.1061 158.627 87.2472C156.846 89.1967 155.518 91.6467 153.983 93.8644Z" fill="#10494B"/>
        <path d="M167.101 84.512C166.325 89.8197 165.413 94.5192 164.993 99.2714C164.134 108.958 165.793 118.342 168.433 127.546C169.066 129.749 169.821 131.912 170.494 134.1C171.006 135.762 170.697 136.736 168.945 137.376C162.15 139.86 155.413 142.534 148.668 145.172C146.567 145.993 146.185 144.754 146.064 142.859C145.529 134.434 146.741 126.296 149.092 118.285C152.508 106.641 157.408 95.9237 164.902 86.7571C165.488 86.0411 166.189 85.435 167.101 84.512Z" fill="#10494B"/>
        <path d="M1.23633 39.1183C16.089 39.359 28.007 44.5316 35.7626 58.5413C41.0673 68.126 43.4777 78.6486 44.0148 89.7604C44.0809 91.1122 44.2492 92.4555 43.921 94.0881C42.6998 92.1746 41.6832 90.0455 40.2212 88.3875C34.0789 81.4302 27.9068 74.4962 21.5472 67.7817C14.2497 60.0768 7.52778 51.8987 2.44049 42.2315C1.99932 41.393 1.74143 40.4404 1.23633 39.1183Z" fill="#10494B"/>
        <path d="M31.4751 83.9611C32.123 85.0805 32.6558 86.3056 33.4359 87.3025C41.4664 97.5695 47.1952 109.199 49.644 122.454C50.8162 128.801 50.8226 135.41 51.2915 141.907C51.4577 144.201 50.6606 144.849 48.5017 144.009C41.8437 141.417 35.111 139.062 28.4168 136.587C26.8418 136.004 26.4113 134.907 27.1039 133.133C30.4713 124.509 32.4299 115.453 32.4363 106.111C32.4406 99.7471 31.392 93.3812 30.7974 87.0195C30.7334 86.3288 30.5459 85.6529 30.4159 84.9686C30.7675 84.6328 31.1213 84.2969 31.4751 83.9611Z" fill="#10494B"/>
        <path d="M198 0.236557C197.465 4.05103 196.642 7.84861 196.461 11.6842C196.15 18.2846 196.114 24.9103 196.227 31.5212C196.267 33.8677 195.92 35.1815 193.575 35.1836C192.621 35.1857 191.668 35.3779 190.715 35.4962C185.707 36.1235 185.752 36.1214 185.434 30.4567C184.741 18.1072 189.477 8.34919 197.22 0C197.48 0.0781482 197.74 0.158409 198 0.236557Z" fill="#10494B"/>
        <path d="M1.09973 34.4396C3.04556 23.0701 0.848238 12.1737 0 1.23932C0.298375 1.08514 0.598882 0.928843 0.897257 0.774658C2.43602 2.52982 4.29021 4.06322 5.46027 6.07606C10.0531 13.9669 12.9133 22.4618 12.114 32.0656C11.8114 35.7048 11.2338 36.2033 7.94317 35.5295C5.79274 35.0881 3.61034 34.8325 1.09973 34.4396Z" fill="#10494B"/>
        <path d="M115.471 278.108C113.837 275.208 113.771 272.034 114.15 269.049C114.485 266.416 115.209 263.562 116.567 261.416C121.04 254.347 125.878 247.557 130.593 240.671C130.678 240.544 130.944 240.568 131.654 240.384C132.747 243.898 132.948 247.584 131.735 250.936C130.239 255.071 128.31 259.108 126.038 262.798C122.848 267.979 119.171 272.798 115.471 278.108Z" fill="#10494B"/>
        <path d="M66.8631 239.368C71.3515 245.723 75.68 251.603 79.7529 257.69C83.9919 264.022 84.4224 271.199 83.1053 279.595C81.8926 277.648 81.1296 276.41 80.3539 275.181C76.1681 268.532 71.6861 262.079 67.8988 255.17C65.3605 250.541 65.3754 245.146 66.8631 239.368Z" fill="#10494B"/>
        <path d="M134.923 220.519C139.486 213.59 143.898 206.531 148.68 199.789C150.995 196.526 154.641 195.366 158.914 194.627C157.175 197.935 155.818 200.982 154.07 203.73C151.233 208.187 148.537 212.895 145.019 216.633C142.649 219.153 138.966 220.184 135.871 221.882C135.556 221.428 135.238 220.974 134.923 220.519Z" fill="#10494B"/>
        <path d="M63.1945 221.128C58.7487 220.606 55.5731 219.085 52.8047 216.618C49.141 213.357 40.9656 199.371 40.3027 195.271C44.2328 195.271 47.5767 196.961 49.8678 200.074C53.3375 204.788 56.2786 209.967 59.4286 214.963C60.5496 216.741 61.6238 218.553 63.1945 221.128Z" fill="#10494B"/>
        <path d="M112.456 293.818C109.472 299.436 105.906 304.486 100.316 307.384C99.5594 307.777 98.2593 307.756 97.5603 307.293C92.3899 303.857 88.5643 298.984 85.6104 293.178C89.4168 295.651 93.6068 297.425 96.2964 301.591C98.3979 304.843 98.6366 304.626 101.226 302.047C104.525 298.76 108.112 295.824 111.575 292.737C111.867 293.098 112.161 293.459 112.456 293.818Z" fill="#10494B"/>
        <path d="M76.6185 225.984C80.7467 225.868 84.0203 231.621 86.3455 237.478C82.6243 238.327 76.5162 231.112 76.6185 225.984Z" fill="#10494B"/>
        <path d="M121.509 225.791C121.406 230.945 116.547 237.275 112.493 237.786C112.265 233.281 116.977 226.885 121.509 225.791Z" fill="#10494B"/>
        <path d="M109.391 285.691C108.12 287.573 106.852 289.453 105.26 291.814C104.557 288.443 105.765 286.325 108.457 285.009C108.768 285.237 109.079 285.465 109.391 285.691Z" fill="#10494B"/>
        <path d="M92.7396 291.535C91.1774 289.336 90.0244 287.712 88.5879 285.691C91.9467 285.581 93.3235 287.457 92.7396 291.535Z" fill="#10494B"/>
    </g>
</svg>
