<?xml version="1.0" standalone="no"?>
<!DOCTYPE svg PUBLIC "-//W3C//DTD SVG 20010904//EN"
 "http://www.w3.org/TR/2001/REC-SVG-20010904/DTD/svg10.dtd">
<svg version="1.0" xmlns="http://www.w3.org/2000/svg"
 width="204.000000pt" height="204.000000pt" viewBox="0 0 204.000000 204.000000"
 preserveAspectRatio="xMidYMid meet">
<g transform="translate(0.000000,204.000000) scale(0.100000,-0.100000)"
fill="#000000" stroke="none">
<path d="M1637 2001 c-50 -75 -63 -193 -22 -199 37 -4 42 10 48 126 3 61 4
112 3 112 -2 0 -15 -18 -29 -39z"/>
<path d="M367 1923 c3 -60 7 -109 8 -111 1 -1 15 -4 31 -5 28 -2 29 0 32 42 4
58 -42 179 -69 181 -4 0 -4 -48 -2 -107z"/>
<path d="M370 1776 c0 -25 64 -110 167 -223 43 -46 86 -96 96 -111 l18 -27 -5
65 c-9 122 -68 230 -147 270 -40 21 -129 38 -129 26z"/>
<path d="M1590 1767 c-114 -23 -193 -134 -206 -292 -6 -60 -6 -60 12 -35 21
29 19 27 105 116 109 115 180 221 147 220 -7 0 -33 -4 -58 -9z"/>
<path d="M566 1445 c12 -67 8 -166 -11 -238 -9 -38 -15 -69 -14 -71 2 -1 37
-14 76 -29 46 -16 75 -22 79 -16 9 15 -4 140 -21 196 -14 49 -74 156 -101 183
-14 13 -15 11 -8 -25z"/>
<path d="M1423 1423 c-77 -127 -127 -343 -80 -343 19 0 147 53 147 60 0 4 -9
42 -19 83 -18 72 -21 212 -5 238 3 5 1 9 -5 9 -5 0 -22 -21 -38 -47z"/>
<path d="M572 1091 c2 -5 50 -59 108 -121 58 -62 116 -126 130 -143 14 -16 33
-38 42 -49 9 -11 31 -48 50 -84 18 -35 36 -64 40 -64 16 0 51 98 50 141 0 71
-33 119 -132 192 -66 48 -297 151 -288 128z"/>
<path d="M1447 1094 c-3 -4 -41 -21 -84 -38 -224 -90 -348 -209 -328 -314 7
-40 41 -112 53 -112 4 0 20 23 35 52 47 85 121 177 237 297 80 83 112 121 103
121 -5 0 -12 -3 -16 -6z"/>
<path d="M630 738 c0 -16 57 -112 77 -130 10 -9 31 -21 46 -27 l28 -11 -25 42
c-48 81 -84 125 -105 131 -11 3 -21 0 -21 -5z"/>
<path d="M1374 738 c-20 -9 -114 -141 -114 -159 0 -33 64 21 111 94 50 78 51
89 3 65z"/>
<path d="M870 526 c0 -7 12 -26 27 -42 33 -36 43 -16 13 26 -23 32 -40 39 -40
16z"/>
<path d="M1131 519 c-10 -11 -21 -29 -24 -40 -8 -29 29 -5 48 31 18 35 5 40
-24 9z"/>
<path d="M798 427 c-7 -37 14 -89 66 -168 25 -38 48 -69 50 -69 2 0 2 23 0 52
-4 52 -35 115 -88 181 l-23 29 -5 -25z"/>
<path d="M1171 364 c-28 -42 -51 -83 -52 -92 0 -10 -2 -24 -4 -33 -1 -9 0 -22
4 -28 15 -24 121 147 121 194 0 46 -19 34 -69 -41z"/>
<path d="M1067 143 c-4 -3 -7 -13 -7 -22 1 -13 3 -13 11 2 11 19 8 33 -4 20z"/>
<path d="M960 125 c7 -9 15 -13 17 -11 7 7 -7 26 -19 26 -6 0 -6 -6 2 -15z"/>
<path d="M940 77 c0 -14 61 -77 75 -77 17 0 73 50 78 70 7 28 -4 25 -38 -10
-27 -28 -55 -40 -55 -22 0 5 -13 18 -30 30 -21 16 -30 18 -30 9z"/>
</g>
</svg>
